ISO-10303-21;
HEADER;
/* Generated by software containing ST-Developer
 * from STEP Tools, Inc. (www.steptools.com) 
 */

FILE_DESCRIPTION(
/* description */ (''),
/* implementation_level */ '2;1');

FILE_NAME(
/* name */ 'Top Plate MM Diffuser Ring.step',
/* time_stamp */ '2026-07-17T19:26:17-04:00',
/* author */ (''),
/* organization */ (''),
/* preprocessor_version */ 'ST-DEVELOPER v20.1',
/* originating_system */ 'Autodesk Translation Framework v15.8.0.0',
/* authorisation */ '');

FILE_SCHEMA (('AUTOMOTIVE_DESIGN { 1 0 10303 214 3 1 1 }'));
ENDSEC;

DATA;
#10=MECHANICAL_DESIGN_GEOMETRIC_PRESENTATION_REPRESENTATION('',(#13),#375);
#11=SHAPE_REPRESENTATION_RELATIONSHIP('SRR','None',#382,#12);
#12=ADVANCED_BREP_SHAPE_REPRESENTATION('',(#14),#374);
#13=STYLED_ITEM('',(#392),#14);
#14=MANIFOLD_SOLID_BREP('Top Plate MM Diffuser Ring',#205);
#15=FACE_BOUND('',#44,.T.);
#16=FACE_BOUND('',#51,.T.);
#17=PLANE('',#228);
#18=PLANE('',#241);
#19=CYLINDRICAL_SURFACE('',#222,39.9);
#20=CYLINDRICAL_SURFACE('',#226,40.05);
#21=CYLINDRICAL_SURFACE('',#230,44.25);
#22=CYLINDRICAL_SURFACE('',#234,44.4);
#23=CYLINDRICAL_SURFACE('',#245,44.25);
#24=CYLINDRICAL_SURFACE('',#246,40.05);
#25=FACE_OUTER_BOUND('',#39,.T.);
#26=FACE_OUTER_BOUND('',#40,.T.);
#27=FACE_OUTER_BOUND('',#41,.T.);
#28=FACE_OUTER_BOUND('',#42,.T.);
#29=FACE_OUTER_BOUND('',#43,.T.);
#30=FACE_OUTER_BOUND('',#45,.T.);
#31=FACE_OUTER_BOUND('',#46,.T.);
#32=FACE_OUTER_BOUND('',#47,.T.);
#33=FACE_OUTER_BOUND('',#48,.T.);
#34=FACE_OUTER_BOUND('',#49,.T.);
#35=FACE_OUTER_BOUND('',#50,.T.);
#36=FACE_OUTER_BOUND('',#52,.T.);
#37=FACE_OUTER_BOUND('',#53,.T.);
#38=FACE_OUTER_BOUND('',#54,.T.);
#39=EDGE_LOOP('',(#133,#134,#135,#136));
#40=EDGE_LOOP('',(#137,#138,#139,#140));
#41=EDGE_LOOP('',(#141,#142,#143,#144));
#42=EDGE_LOOP('',(#145,#146,#147,#148));
#43=EDGE_LOOP('',(#149));
#44=EDGE_LOOP('',(#150));
#45=EDGE_LOOP('',(#151,#152,#153,#154));
#46=EDGE_LOOP('',(#155,#156,#157,#158));
#47=EDGE_LOOP('',(#159,#160,#161,#162));
#48=EDGE_LOOP('',(#163,#164,#165,#166));
#49=EDGE_LOOP('',(#167,#168,#169,#170));
#50=EDGE_LOOP('',(#171));
#51=EDGE_LOOP('',(#172));
#52=EDGE_LOOP('',(#173,#174,#175,#176));
#53=EDGE_LOOP('',(#177,#178,#179,#180));
#54=EDGE_LOOP('',(#181,#182,#183,#184));
#55=LINE('',#322,#67);
#56=LINE('',#327,#68);
#57=LINE('',#330,#69);
#58=LINE('',#335,#70);
#59=LINE('',#342,#71);
#60=LINE('',#346,#72);
#61=LINE('',#350,#73);
#62=LINE('',#353,#74);
#63=LINE('',#359,#75);
#64=LINE('',#367,#76);
#65=LINE('',#369,#77);
#66=LINE('',#371,#78);
#67=VECTOR('',#253,39.975);
#68=VECTOR('',#260,39.9);
#69=VECTOR('',#263,39.975);
#70=VECTOR('',#270,40.05);
#71=VECTOR('',#279,44.25);
#72=VECTOR('',#284,44.325);
#73=VECTOR('',#289,44.4);
#74=VECTOR('',#292,44.325);
#75=VECTOR('',#299,40.5810660171779);
#76=VECTOR('',#310,43.5250000000001);
#77=VECTOR('',#313,44.25);
#78=VECTOR('',#316,40.05);
#79=CIRCLE('',#220,39.9);
#80=CIRCLE('',#221,40.05);
#81=CIRCLE('',#223,39.9);
#82=CIRCLE('',#225,40.05);
#83=CIRCLE('',#227,40.05);
#84=CIRCLE('',#229,44.25);
#85=CIRCLE('',#231,44.25);
#86=CIRCLE('',#233,44.4);
#87=CIRCLE('',#235,44.4);
#88=CIRCLE('',#237,44.25);
#89=CIRCLE('',#239,40.05);
#90=CIRCLE('',#240,41.1121320343559);
#91=CIRCLE('',#242,42.8000000000002);
#92=CIRCLE('',#244,44.25);
#93=VERTEX_POINT('',#319);
#94=VERTEX_POINT('',#321);
#95=VERTEX_POINT('',#325);
#96=VERTEX_POINT('',#329);
#97=VERTEX_POINT('',#333);
#98=VERTEX_POINT('',#337);
#99=VERTEX_POINT('',#340);
#100=VERTEX_POINT('',#344);
#101=VERTEX_POINT('',#348);
#102=VERTEX_POINT('',#352);
#103=VERTEX_POINT('',#356);
#104=VERTEX_POINT('',#358);
#105=VERTEX_POINT('',#362);
#106=VERTEX_POINT('',#365);
#107=EDGE_CURVE('',#93,#93,#79,.T.);
#108=EDGE_CURVE('',#93,#94,#55,.T.);
#109=EDGE_CURVE('',#94,#94,#80,.T.);
#110=EDGE_CURVE('',#95,#95,#81,.T.);
#111=EDGE_CURVE('',#95,#93,#56,.T.);
#112=EDGE_CURVE('',#95,#96,#57,.T.);
#113=EDGE_CURVE('',#96,#96,#82,.T.);
#114=EDGE_CURVE('',#97,#97,#83,.T.);
#115=EDGE_CURVE('',#97,#96,#58,.T.);
#116=EDGE_CURVE('',#98,#98,#84,.T.);
#117=EDGE_CURVE('',#99,#99,#85,.T.);
#118=EDGE_CURVE('',#99,#98,#59,.T.);
#119=EDGE_CURVE('',#100,#100,#86,.T.);
#120=EDGE_CURVE('',#100,#99,#60,.T.);
#121=EDGE_CURVE('',#101,#101,#87,.T.);
#122=EDGE_CURVE('',#101,#100,#61,.T.);
#123=EDGE_CURVE('',#101,#102,#62,.T.);
#124=EDGE_CURVE('',#102,#102,#88,.T.);
#125=EDGE_CURVE('',#103,#103,#89,.T.);
#126=EDGE_CURVE('',#103,#104,#63,.T.);
#127=EDGE_CURVE('',#104,#104,#90,.T.);
#128=EDGE_CURVE('',#105,#105,#91,.T.);
#129=EDGE_CURVE('',#106,#106,#92,.T.);
#130=EDGE_CURVE('',#106,#105,#64,.T.);
#131=EDGE_CURVE('',#106,#102,#65,.T.);
#132=EDGE_CURVE('',#94,#103,#66,.T.);
#133=ORIENTED_EDGE('',*,*,#107,.F.);
#134=ORIENTED_EDGE('',*,*,#108,.T.);
#135=ORIENTED_EDGE('',*,*,#109,.T.);
#136=ORIENTED_EDGE('',*,*,#108,.F.);
#137=ORIENTED_EDGE('',*,*,#110,.F.);
#138=ORIENTED_EDGE('',*,*,#111,.T.);
#139=ORIENTED_EDGE('',*,*,#107,.T.);
#140=ORIENTED_EDGE('',*,*,#111,.F.);
#141=ORIENTED_EDGE('',*,*,#110,.T.);
#142=ORIENTED_EDGE('',*,*,#112,.T.);
#143=ORIENTED_EDGE('',*,*,#113,.F.);
#144=ORIENTED_EDGE('',*,*,#112,.F.);
#145=ORIENTED_EDGE('',*,*,#114,.F.);
#146=ORIENTED_EDGE('',*,*,#115,.T.);
#147=ORIENTED_EDGE('',*,*,#113,.T.);
#148=ORIENTED_EDGE('',*,*,#115,.F.);
#149=ORIENTED_EDGE('',*,*,#116,.F.);
#150=ORIENTED_EDGE('',*,*,#114,.T.);
#151=ORIENTED_EDGE('',*,*,#117,.F.);
#152=ORIENTED_EDGE('',*,*,#118,.T.);
#153=ORIENTED_EDGE('',*,*,#116,.T.);
#154=ORIENTED_EDGE('',*,*,#118,.F.);
#155=ORIENTED_EDGE('',*,*,#119,.F.);
#156=ORIENTED_EDGE('',*,*,#120,.T.);
#157=ORIENTED_EDGE('',*,*,#117,.T.);
#158=ORIENTED_EDGE('',*,*,#120,.F.);
#159=ORIENTED_EDGE('',*,*,#121,.F.);
#160=ORIENTED_EDGE('',*,*,#122,.T.);
#161=ORIENTED_EDGE('',*,*,#119,.T.);
#162=ORIENTED_EDGE('',*,*,#122,.F.);
#163=ORIENTED_EDGE('',*,*,#121,.T.);
#164=ORIENTED_EDGE('',*,*,#123,.T.);
#165=ORIENTED_EDGE('',*,*,#124,.F.);
#166=ORIENTED_EDGE('',*,*,#123,.F.);
#167=ORIENTED_EDGE('',*,*,#125,.F.);
#168=ORIENTED_EDGE('',*,*,#126,.T.);
#169=ORIENTED_EDGE('',*,*,#127,.T.);
#170=ORIENTED_EDGE('',*,*,#126,.F.);
#171=ORIENTED_EDGE('',*,*,#128,.T.);
#172=ORIENTED_EDGE('',*,*,#127,.F.);
#173=ORIENTED_EDGE('',*,*,#129,.T.);
#174=ORIENTED_EDGE('',*,*,#130,.T.);
#175=ORIENTED_EDGE('',*,*,#128,.F.);
#176=ORIENTED_EDGE('',*,*,#130,.F.);
#177=ORIENTED_EDGE('',*,*,#129,.F.);
#178=ORIENTED_EDGE('',*,*,#131,.T.);
#179=ORIENTED_EDGE('',*,*,#124,.T.);
#180=ORIENTED_EDGE('',*,*,#131,.F.);
#181=ORIENTED_EDGE('',*,*,#109,.F.);
#182=ORIENTED_EDGE('',*,*,#132,.T.);
#183=ORIENTED_EDGE('',*,*,#125,.T.);
#184=ORIENTED_EDGE('',*,*,#132,.F.);
#185=CONICAL_SURFACE('',#219,39.975,0.785398163397448);
#186=CONICAL_SURFACE('',#224,39.975,0.785398163397389);
#187=CONICAL_SURFACE('',#232,44.325,0.785398163397419);
#188=CONICAL_SURFACE('',#236,44.325,0.785398163397419);
#189=CONICAL_SURFACE('',#238,40.5810660171779,0.785398163397423);
#190=CONICAL_SURFACE('',#243,43.5250000000001,0.785398163397369);
#191=ADVANCED_FACE('',(#25),#185,.F.);
#192=ADVANCED_FACE('',(#26),#19,.F.);
#193=ADVANCED_FACE('',(#27),#186,.F.);
#194=ADVANCED_FACE('',(#28),#20,.F.);
#195=ADVANCED_FACE('',(#29,#15),#17,.T.);
#196=ADVANCED_FACE('',(#30),#21,.T.);
#197=ADVANCED_FACE('',(#31),#187,.T.);
#198=ADVANCED_FACE('',(#32),#22,.T.);
#199=ADVANCED_FACE('',(#33),#188,.T.);
#200=ADVANCED_FACE('',(#34),#189,.F.);
#201=ADVANCED_FACE('',(#35,#16),#18,.T.);
#202=ADVANCED_FACE('',(#36),#190,.T.);
#203=ADVANCED_FACE('',(#37),#23,.T.);
#204=ADVANCED_FACE('',(#38),#24,.F.);
#205=CLOSED_SHELL('',(#191,#192,#193,#194,#195,#196,#197,#198,#199,#200,
#201,#202,#203,#204));
#206=DERIVED_UNIT_ELEMENT(#208,1.);
#207=DERIVED_UNIT_ELEMENT(#377,-3.);
#208=(
MASS_UNIT()
NAMED_UNIT(*)
SI_UNIT(.KILO.,.GRAM.)
);
#209=DERIVED_UNIT((#206,#207));
#210=MEASURE_REPRESENTATION_ITEM('density measure',
POSITIVE_RATIO_MEASURE(7850.),#209);
#211=PROPERTY_DEFINITION_REPRESENTATION(#216,#213);
#212=PROPERTY_DEFINITION_REPRESENTATION(#217,#214);
#213=REPRESENTATION('material name',(#215),#374);
#214=REPRESENTATION('density',(#210),#374);
#215=DESCRIPTIVE_REPRESENTATION_ITEM('Steel','Steel');
#216=PROPERTY_DEFINITION('material property','material name',#384);
#217=PROPERTY_DEFINITION('material property','density of part',#384);
#218=AXIS2_PLACEMENT_3D('',#317,#247,#248);
#219=AXIS2_PLACEMENT_3D('',#318,#249,#250);
#220=AXIS2_PLACEMENT_3D('',#320,#251,#252);
#221=AXIS2_PLACEMENT_3D('',#323,#254,#255);
#222=AXIS2_PLACEMENT_3D('',#324,#256,#257);
#223=AXIS2_PLACEMENT_3D('',#326,#258,#259);
#224=AXIS2_PLACEMENT_3D('',#328,#261,#262);
#225=AXIS2_PLACEMENT_3D('',#331,#264,#265);
#226=AXIS2_PLACEMENT_3D('',#332,#266,#267);
#227=AXIS2_PLACEMENT_3D('',#334,#268,#269);
#228=AXIS2_PLACEMENT_3D('',#336,#271,#272);
#229=AXIS2_PLACEMENT_3D('',#338,#273,#274);
#230=AXIS2_PLACEMENT_3D('',#339,#275,#276);
#231=AXIS2_PLACEMENT_3D('',#341,#277,#278);
#232=AXIS2_PLACEMENT_3D('',#343,#280,#281);
#233=AXIS2_PLACEMENT_3D('',#345,#282,#283);
#234=AXIS2_PLACEMENT_3D('',#347,#285,#286);
#235=AXIS2_PLACEMENT_3D('',#349,#287,#288);
#236=AXIS2_PLACEMENT_3D('',#351,#290,#291);
#237=AXIS2_PLACEMENT_3D('',#354,#293,#294);
#238=AXIS2_PLACEMENT_3D('',#355,#295,#296);
#239=AXIS2_PLACEMENT_3D('',#357,#297,#298);
#240=AXIS2_PLACEMENT_3D('',#360,#300,#301);
#241=AXIS2_PLACEMENT_3D('',#361,#302,#303);
#242=AXIS2_PLACEMENT_3D('',#363,#304,#305);
#243=AXIS2_PLACEMENT_3D('',#364,#306,#307);
#244=AXIS2_PLACEMENT_3D('',#366,#308,#309);
#245=AXIS2_PLACEMENT_3D('',#368,#311,#312);
#246=AXIS2_PLACEMENT_3D('',#370,#314,#315);
#247=DIRECTION('axis',(0.,0.,1.));
#248=DIRECTION('refdir',(1.,0.,0.));
#249=DIRECTION('center_axis',(0.,0.,-1.));
#250=DIRECTION('ref_axis',(-1.,0.,0.));
#251=DIRECTION('center_axis',(0.,0.,-1.));
#252=DIRECTION('ref_axis',(1.,0.,0.));
#253=DIRECTION('',(0.707106781186547,-8.65956056235493E-17,-0.707106781186548));
#254=DIRECTION('center_axis',(0.,0.,-1.));
#255=DIRECTION('ref_axis',(1.,0.,0.));
#256=DIRECTION('center_axis',(0.,0.,-1.));
#257=DIRECTION('ref_axis',(-1.,0.,0.));
#258=DIRECTION('center_axis',(0.,0.,-1.));
#259=DIRECTION('ref_axis',(1.,0.,0.));
#260=DIRECTION('',(0.,0.,-1.));
#261=DIRECTION('center_axis',(0.,0.,1.));
#262=DIRECTION('ref_axis',(-1.,0.,0.));
#263=DIRECTION('',(0.707106781186506,8.65956056235442E-17,0.70710678118659));
#264=DIRECTION('center_axis',(0.,0.,-1.));
#265=DIRECTION('ref_axis',(1.,0.,0.));
#266=DIRECTION('center_axis',(0.,0.,-1.));
#267=DIRECTION('ref_axis',(-1.,0.,0.));
#268=DIRECTION('center_axis',(0.,0.,-1.));
#269=DIRECTION('ref_axis',(1.,0.,0.));
#270=DIRECTION('',(0.,0.,-1.));
#271=DIRECTION('center_axis',(0.,0.,1.));
#272=DIRECTION('ref_axis',(1.,0.,0.));
#273=DIRECTION('center_axis',(0.,0.,-1.));
#274=DIRECTION('ref_axis',(1.,0.,0.));
#275=DIRECTION('center_axis',(0.,0.,-1.));
#276=DIRECTION('ref_axis',(-1.,0.,0.));
#277=DIRECTION('center_axis',(0.,0.,-1.));
#278=DIRECTION('ref_axis',(1.,0.,0.));
#279=DIRECTION('',(0.,0.,1.));
#280=DIRECTION('center_axis',(0.,0.,-1.));
#281=DIRECTION('ref_axis',(-1.,0.,0.));
#282=DIRECTION('center_axis',(0.,0.,-1.));
#283=DIRECTION('ref_axis',(1.,0.,0.));
#284=DIRECTION('',(-0.707106781186527,8.65956056235468E-17,0.707106781186568));
#285=DIRECTION('center_axis',(0.,0.,-1.));
#286=DIRECTION('ref_axis',(-1.,0.,0.));
#287=DIRECTION('center_axis',(0.,0.,-1.));
#288=DIRECTION('ref_axis',(1.,0.,0.));
#289=DIRECTION('',(0.,0.,1.));
#290=DIRECTION('center_axis',(0.,0.,1.));
#291=DIRECTION('ref_axis',(-1.,0.,0.));
#292=DIRECTION('',(-0.707106781186527,-8.65956056235468E-17,-0.707106781186568));
#293=DIRECTION('center_axis',(0.,0.,-1.));
#294=DIRECTION('ref_axis',(1.,0.,0.));
#295=DIRECTION('center_axis',(0.,0.,-1.));
#296=DIRECTION('ref_axis',(-1.,0.,0.));
#297=DIRECTION('center_axis',(0.,0.,-1.));
#298=DIRECTION('ref_axis',(1.,0.,0.));
#299=DIRECTION('',(0.70710678118653,-8.65956056235471E-17,-0.707106781186565));
#300=DIRECTION('center_axis',(0.,0.,-1.));
#301=DIRECTION('ref_axis',(1.,0.,0.));
#302=DIRECTION('center_axis',(0.,0.,-1.));
#303=DIRECTION('ref_axis',(-1.,0.,0.));
#304=DIRECTION('center_axis',(0.,0.,-1.));
#305=DIRECTION('ref_axis',(1.,0.,0.));
#306=DIRECTION('center_axis',(0.,0.,1.));
#307=DIRECTION('ref_axis',(-1.,0.,0.));
#308=DIRECTION('center_axis',(0.,0.,-1.));
#309=DIRECTION('ref_axis',(1.,0.,0.));
#310=DIRECTION('',(-0.707106781186491,-8.65956056235425E-17,-0.707106781186604));
#311=DIRECTION('center_axis',(0.,0.,-1.));
#312=DIRECTION('ref_axis',(-1.,0.,0.));
#313=DIRECTION('',(0.,0.,1.));
#314=DIRECTION('center_axis',(0.,0.,-1.));
#315=DIRECTION('ref_axis',(-1.,0.,0.));
#316=DIRECTION('',(0.,0.,-1.));
#317=CARTESIAN_POINT('',(0.,0.,0.));
#318=CARTESIAN_POINT('Origin',(0.,0.,155.532132034356));
#319=CARTESIAN_POINT('',(39.9,-4.88634072859794E-15,155.607132034356));
#320=CARTESIAN_POINT('Origin',(0.,0.,155.607132034356));
#321=CARTESIAN_POINT('',(40.05,-4.90471043058515E-15,155.457132034356));
#322=CARTESIAN_POINT('',(39.975,-4.89552557959154E-15,155.532132034356));
#323=CARTESIAN_POINT('Origin',(0.,0.,155.457132034356));
#324=CARTESIAN_POINT('Origin',(0.,0.,156.095));
#325=CARTESIAN_POINT('',(39.9,-4.88634072859794E-15,156.582867965644));
#326=CARTESIAN_POINT('Origin',(0.,0.,156.582867965644));
#327=CARTESIAN_POINT('',(39.9,-4.88634072859794E-15,156.095));
#328=CARTESIAN_POINT('Origin',(0.,0.,156.657867965644));
#329=CARTESIAN_POINT('',(40.05,-4.90471043058515E-15,156.732867965644));
#330=CARTESIAN_POINT('',(39.975,4.89552557959154E-15,156.657867965644));
#331=CARTESIAN_POINT('Origin',(0.,0.,156.732867965644));
#332=CARTESIAN_POINT('Origin',(0.,0.,157.313933982822));
#333=CARTESIAN_POINT('',(40.05,-4.90471043058515E-15,157.895));
#334=CARTESIAN_POINT('Origin',(0.,0.,157.895));
#335=CARTESIAN_POINT('',(40.05,-4.90471043058515E-15,157.313933982822));
#336=CARTESIAN_POINT('Origin',(-44.25,0.,157.895));
#337=CARTESIAN_POINT('',(44.25,-5.41906208622704E-15,157.895));
#338=CARTESIAN_POINT('Origin',(0.,0.,157.895));
#339=CARTESIAN_POINT('Origin',(0.,0.,157.313933982822));
#340=CARTESIAN_POINT('',(44.25,-5.41906208622704E-15,156.732867965644));
#341=CARTESIAN_POINT('Origin',(0.,0.,156.732867965644));
#342=CARTESIAN_POINT('',(44.25,-5.41906208622704E-15,157.313933982822));
#343=CARTESIAN_POINT('Origin',(0.,0.,156.657867965644));
#344=CARTESIAN_POINT('',(44.4,-5.43743178821425E-15,156.582867965644));
#345=CARTESIAN_POINT('Origin',(0.,0.,156.582867965644));
#346=CARTESIAN_POINT('',(44.325,-5.42824693722064E-15,156.657867965644));
#347=CARTESIAN_POINT('Origin',(0.,0.,156.095));
#348=CARTESIAN_POINT('',(44.4,-5.43743178821425E-15,155.607132034356));
#349=CARTESIAN_POINT('Origin',(0.,0.,155.607132034356));
#350=CARTESIAN_POINT('',(44.4,-5.43743178821425E-15,156.095));
#351=CARTESIAN_POINT('Origin',(0.,0.,155.532132034356));
#352=CARTESIAN_POINT('',(44.25,-5.41906208622704E-15,155.457132034356));
#353=CARTESIAN_POINT('',(44.325,5.42824693722064E-15,155.532132034356));
#354=CARTESIAN_POINT('Origin',(0.,0.,155.457132034356));
#355=CARTESIAN_POINT('Origin',(0.,0.,149.561066017178));
#356=CARTESIAN_POINT('',(40.05,-4.90471043058515E-15,150.092132034356));
#357=CARTESIAN_POINT('Origin',(0.,0.,150.092132034356));
#358=CARTESIAN_POINT('',(41.1121320343559,-5.03478409019973E-15,149.03));
#359=CARTESIAN_POINT('',(40.5810660171779,-4.96974726039244E-15,149.561066017178));
#360=CARTESIAN_POINT('Origin',(0.,0.,149.03));
#361=CARTESIAN_POINT('Origin',(-41.1121320343559,0.,149.03));
#362=CARTESIAN_POINT('',(42.8000000000001,-5.24148830035069E-15,149.03));
#363=CARTESIAN_POINT('Origin',(0.,0.,149.03));
#364=CARTESIAN_POINT('Origin',(0.,0.,149.755));
#365=CARTESIAN_POINT('',(44.25,-5.41906208622704E-15,150.48));
#366=CARTESIAN_POINT('Origin',(0.,0.,150.48));
#367=CARTESIAN_POINT('',(43.5250000000001,5.33027519328887E-15,149.755));
#368=CARTESIAN_POINT('Origin',(0.,0.,151.036066017178));
#369=CARTESIAN_POINT('',(44.25,-5.41906208622704E-15,151.036066017178));
#370=CARTESIAN_POINT('Origin',(0.,0.,150.842132034356));
#371=CARTESIAN_POINT('',(40.05,-4.90471043058515E-15,150.842132034356));
#372=UNCERTAINTY_MEASURE_WITH_UNIT(LENGTH_MEASURE(0.01),#376,
'DISTANCE_ACCURACY_VALUE',
'Maximum model space distance between geometric entities at asserted c
onnectivities');
#373=UNCERTAINTY_MEASURE_WITH_UNIT(LENGTH_MEASURE(0.01),#376,
'DISTANCE_ACCURACY_VALUE',
'Maximum model space distance between geometric entities at asserted c
onnectivities');
#374=(
GEOMETRIC_REPRESENTATION_CONTEXT(3)
GLOBAL_UNCERTAINTY_ASSIGNED_CONTEXT((#372))
GLOBAL_UNIT_ASSIGNED_CONTEXT((#376,#378,#379))
REPRESENTATION_CONTEXT('','3D')
);
#375=(
GEOMETRIC_REPRESENTATION_CONTEXT(3)
GLOBAL_UNCERTAINTY_ASSIGNED_CONTEXT((#373))
GLOBAL_UNIT_ASSIGNED_CONTEXT((#376,#378,#379))
REPRESENTATION_CONTEXT('','3D')
);
#376=(
LENGTH_UNIT()
NAMED_UNIT(*)
SI_UNIT(.MILLI.,.METRE.)
);
#377=(
LENGTH_UNIT()
NAMED_UNIT(*)
SI_UNIT($,.METRE.)
);
#378=(
NAMED_UNIT(*)
PLANE_ANGLE_UNIT()
SI_UNIT($,.RADIAN.)
);
#379=(
NAMED_UNIT(*)
SI_UNIT($,.STERADIAN.)
SOLID_ANGLE_UNIT()
);
#380=SHAPE_DEFINITION_REPRESENTATION(#381,#382);
#381=PRODUCT_DEFINITION_SHAPE('',$,#384);
#382=SHAPE_REPRESENTATION('',(#218),#374);
#383=PRODUCT_DEFINITION_CONTEXT('part definition',#388,'design');
#384=PRODUCT_DEFINITION('2026-07-17-19-26-17-574',
'Top Plate MM Diffuser Ring',#385,#383);
#385=PRODUCT_DEFINITION_FORMATION('',$,#390);
#386=PRODUCT_RELATED_PRODUCT_CATEGORY('Top Plate MM Diffuser Ring',
'Top Plate MM Diffuser Ring',(#390));
#387=APPLICATION_PROTOCOL_DEFINITION('international standard',
'automotive_design',2009,#388);
#388=APPLICATION_CONTEXT(
'Core Data for Automotive Mechanical Design Process');
#389=PRODUCT_CONTEXT('part definition',#388,'mechanical');
#390=PRODUCT('2026-07-17-19-26-17-574','Top Plate MM Diffuser Ring',$,(#389));
#391=PRESENTATION_STYLE_ASSIGNMENT((#393));
#392=PRESENTATION_STYLE_ASSIGNMENT((#394));
#393=SURFACE_STYLE_USAGE(.BOTH.,#395);
#394=SURFACE_STYLE_USAGE(.BOTH.,#396);
#395=SURFACE_SIDE_STYLE('',(#397));
#396=SURFACE_SIDE_STYLE('',(#398));
#397=SURFACE_STYLE_FILL_AREA(#399);
#398=SURFACE_STYLE_FILL_AREA(#400);
#399=FILL_AREA_STYLE('Steel - Satin',(#401));
#400=FILL_AREA_STYLE('Opaque(160,160,160)',(#402));
#401=FILL_AREA_STYLE_COLOUR('Steel - Satin',#403);
#402=FILL_AREA_STYLE_COLOUR('Opaque(160,160,160)',#404);
#403=COLOUR_RGB('Steel - Satin',0.627450980392157,0.627450980392157,0.627450980392157);
#404=COLOUR_RGB('Opaque(160,160,160)',0.627450980392157,0.627450980392157,
0.627450980392157);
ENDSEC;
END-ISO-10303-21;
